<?xml version="1.0" encoding="utf-8"?>

<svg version="1.1" xmlns="http://www.w3.org/2000/svg" xmlns:xlink="http://www.w3.org/1999/xlink"
  viewBox="-1390.099 898.659 286.229 298.658" width="286.229" height="298.658">
  <g transform="matrix(0.505806, 0, 0, 0.505806, -1535.2146, 449.235809)" style="">
    <g>
      <path class="st0" d="M802.59,1170.78c2,40.19-17.15,79.26-44.46,108.82c-26.6,28.8-63.66,50.79-102.82,49
				c-39.17-1.78-77.84-33.44-77.95-72.65c9.47,13.66,25.09,19.48,41.84,19.82c78.87,1.58,72.8-134.34-3.5-132.29
				c-54.45,1.46-100.38,61.91-91.81,117.35c8.07,52.21,37.01,92.39,94.33,116.36c86.41,36.14,166.81-11.28,173.83-16.19
				c-26.28,38.16-65.96,66.91-110.42,79.97c-45.82,13.48-97.92,10.81-141.05-10.18c-43.63-21.24-79.25-59.18-101.36-102.02
				c-44.58-86.39-35.46-197.22,42.06-263.01c59.87-50.8,150.01-59.72,220.84-27.35c17.06,7.79,32.99,17.97,47.1,30.55
				C778.61,1095.12,800.64,1131.47,802.59,1170.78z" style="fill: rgb(76, 190, 219);"></path>
      <path class="st1" d="M843.36,1212.87c1.72-118.96-78.95-190.91-173.82-213.75c-213.01-51.29-362.54,189.25-248.4,356.4
				c92.02,134.76,193.03,116.66,193.14,116.64c-103.28,28.56-223.16-36.79-278.06-115.66c-61.42-88.25-64.08-211.19-15.74-305.8
				c87.59-171.42,323.15-221.33,461.24-79.57C849.36,1040.57,865.78,1120.96,843.36,1212.87z"
        style="fill: rgb(37, 35, 92);"></path>
    </g>
  </g>
</svg>