<?xml version="1.0" encoding="utf-8"?>
<!-- Generator: Adobe Illustrator 25.3.0, SVG Export Plug-In . SVG Version: 6.00 Build 0)  -->
<svg version="1.1" id="Layer_1" xmlns="http://www.w3.org/2000/svg" xmlns:xlink="http://www.w3.org/1999/xlink" x="0px"
  y="0px" viewBox="0 0 2500 2500">
  <style type="text/css">
    .st0 {
      fill: #4CBEDB;
    }

    .st1 {
      fill: #25235C;
    }
  </style>
  <g>
    <g>
      <g>
        <path class="st0" d="M802.59,1170.78c2,40.19-17.15,79.26-44.46,108.82c-26.6,28.8-63.66,50.79-102.82,49
				c-39.17-1.78-77.84-33.44-77.95-72.65c9.47,13.66,25.09,19.48,41.84,19.82c78.87,1.58,72.8-134.34-3.5-132.29
				c-54.45,1.46-100.38,61.91-91.81,117.35c8.07,52.21,37.01,92.39,94.33,116.36c86.41,36.14,166.81-11.28,173.83-16.19
				c-26.28,38.16-65.96,66.91-110.42,79.97c-45.82,13.48-97.92,10.81-141.05-10.18c-43.63-21.24-79.25-59.18-101.36-102.02
				c-44.58-86.39-35.46-197.22,42.06-263.01c59.87-50.8,150.01-59.72,220.84-27.35c17.06,7.79,32.99,17.97,47.1,30.55
				C778.61,1095.12,800.64,1131.47,802.59,1170.78z" />
        <path class="st1" d="M843.36,1212.87c1.72-118.96-78.95-190.91-173.82-213.75c-213.01-51.29-362.54,189.25-248.4,356.4
				c92.02,134.76,193.03,116.66,193.14,116.64c-103.28,28.56-223.16-36.79-278.06-115.66c-61.42-88.25-64.08-211.19-15.74-305.8
				c87.59-171.42,323.15-221.33,461.24-79.57C849.36,1040.57,865.78,1120.96,843.36,1212.87z" />
      </g>
    </g>
    <g>
      <path class="st1" d="M873.88,1277.63v-86.32h16l45.58,62.9v-62.9h15.39v86.32h-16l-45.58-64.23v64.23H873.88z" />
      <path class="st1" d="M994.19,1214.25c19.24,0,28.86,9.82,28.86,29.46c0,2.62-0.18,5.23-0.54,7.85h-42.08
			c0,8.93,6.56,13.4,19.68,13.4c6.4,0,12.8-0.6,19.2-1.81v12.68c-5.59,1.21-12.4,1.81-20.4,1.81c-22.98,0-34.47-10.81-34.47-32.42
			C964.43,1224.57,974.35,1214.25,994.19,1214.25z M980.43,1240.45h27.04v-0.48c0-8.77-4.43-13.16-13.28-13.16
			C985.74,1226.81,981.15,1231.35,980.43,1240.45z" />
      <path class="st1" d="M1029.63,1214.25h16.12l8.21,44.13l14.67-44.13h13.7l15.82,44.13l7.12-44.13h16.66l-16.54,63.39h-15.03
			l-14.91-44.97l-15.09,44.97h-15.27L1029.63,1214.25z" />
      <path class="st1"
        d="M1222.74,1191.31v13.88l-45.94,58.56h45.94v13.88h-63.99v-13.88l47.93-58.56h-46.72v-13.88H1222.74z" />
      <path class="st1" d="M1260.95,1214.25c19.24,0,28.86,9.82,28.86,29.46c0,2.62-0.18,5.23-0.54,7.85h-42.08
			c0,8.93,6.56,13.4,19.68,13.4c6.4,0,12.8-0.6,19.2-1.81v12.68c-5.59,1.21-12.4,1.81-20.4,1.81c-22.98,0-34.47-10.81-34.47-32.42
			C1231.19,1224.57,1241.11,1214.25,1260.95,1214.25z M1247.19,1240.45h27.04v-0.48c0-8.77-4.43-13.16-13.28-13.16
			C1252.5,1226.81,1247.92,1231.35,1247.19,1240.45z" />
      <path class="st1" d="M1298.81,1257.89c0-12.6,9.18-18.89,27.53-18.89c4.31,0,8.61,0.4,12.92,1.21v-4.77
			c0-5.67-4.08-8.51-12.25-8.51c-6.92,0-14.61,1.01-23.06,3.02v-12.68c8.45-2.01,16.14-3.02,23.06-3.02
			c18.83,0,28.25,6.96,28.25,20.89v42.5h-9.3l-5.67-5.67c-5.51,3.78-11.59,5.67-18.23,5.67
			C1306.55,1277.63,1298.81,1271.05,1298.81,1257.89z M1326.33,1249.87c-7.69,0-11.53,2.62-11.53,7.85c0,5.64,3.22,8.45,9.66,8.45
			c5.31,0,10.24-1.65,14.79-4.95v-10.14C1335.23,1250.27,1330.92,1249.87,1326.33,1249.87z" />
      <path class="st1" d="M1386.34,1191.31v86.32h-16v-86.32H1386.34z" />
      <path class="st1" d="M1398.41,1257.89c0-12.6,9.18-18.89,27.53-18.89c4.31,0,8.61,0.4,12.92,1.21v-4.77
			c0-5.67-4.08-8.51-12.25-8.51c-6.92,0-14.61,1.01-23.06,3.02v-12.68c8.45-2.01,16.14-3.02,23.06-3.02
			c18.83,0,28.25,6.96,28.25,20.89v42.5h-9.3l-5.67-5.67c-5.51,3.78-11.59,5.67-18.23,5.67
			C1406.16,1277.63,1398.41,1271.05,1398.41,1257.89z M1425.94,1249.87c-7.69,0-11.53,2.62-11.53,7.85c0,5.64,3.22,8.45,9.66,8.45
			c5.31,0,10.24-1.65,14.79-4.95v-10.14C1434.83,1250.27,1430.53,1249.87,1425.94,1249.87z" />
      <path class="st1" d="M1469.95,1277.63v-63.39h12.38l1.99,9.3c6.08-6.2,13-9.3,20.77-9.3c15.01,0,22.52,7.81,22.52,23.42v39.96h-16
			v-39.96c0-7-3.48-10.5-10.44-10.5c-5.19,0-10.26,2.07-15.21,6.22v44.25H1469.95z" />
      <path class="st1" d="M1598.83,1273.83c-9.7,2.54-19.18,3.8-28.43,3.8c-20.49,0-30.73-10.99-30.73-32.96
			c0-20.28,10.02-30.42,30.06-30.42c4.26,0,8.63,1.01,13.1,3.02v-25.96h16V1273.83z M1582.83,1230.79
			c-3.3-2.17-7.45-3.26-12.44-3.26c-9.94,0-14.91,5.57-14.91,16.72c0,13.24,5.17,19.86,15.51,19.86c4.19,0,8.13-0.58,11.83-1.75
			V1230.79z" />
      <path class="st1" d="M1641.09,1274.01v-14.49c8.65,3.22,18.43,4.83,29.34,4.83c13.24,0,19.86-4.43,19.86-13.28
			c0-6.44-4.07-9.66-12.19-9.66h-13.52c-17.67,0-26.5-8.05-26.5-24.15c0-17.71,12.58-26.56,37.73-26.56
			c9.66,0,18.81,1.41,27.47,4.23v14.49c-8.65-3.22-17.81-4.83-27.47-4.83c-14.49,0-21.73,4.23-21.73,12.68
			c0,6.44,3.5,9.66,10.5,9.66h13.52c18.79,0,28.19,8.05,28.19,24.15c0,18.11-11.95,27.17-35.86,27.17
			C1659.52,1278.24,1649.74,1276.83,1641.09,1274.01z" />
      <path class="st1" d="M1715.34,1245.94c0-21.25,10.46-31.87,31.39-31.87c20.93,0,31.39,10.62,31.39,31.87
			c0,21.21-10.46,31.81-31.39,31.81C1725.88,1277.76,1715.42,1267.15,1715.34,1245.94z M1746.73,1265.56
			c10.26,0,15.39-6.62,15.39-19.86c0-12.92-5.13-19.38-15.39-19.38c-10.26,0-15.39,6.46-15.39,19.38
			C1731.34,1258.94,1736.47,1265.56,1746.73,1265.56z" />
      <path class="st1" d="M1836.98,1275.82c-5.23,1.21-10.66,1.81-16.3,1.81c-22.54,0-33.81-10.97-33.81-32.9
			c0-20.32,11.27-30.48,33.81-30.48c5.63,0,11.07,0.6,16.3,1.81v12.68c-5.23-1.21-10.26-1.81-15.09-1.81
			c-12.68,0-19.02,5.94-19.02,17.81c0,13.48,6.34,20.22,19.02,20.22c4.83,0,9.86-0.6,15.09-1.81V1275.82z" />
      <path class="st1" d="M1863.54,1191.31v12.68h-16v-12.68H1863.54z M1863.54,1214.25v63.39h-16v-63.39H1863.54z" />
      <path class="st1" d="M1905.37,1214.25c19.24,0,28.86,9.82,28.86,29.46c0,2.62-0.18,5.23-0.54,7.85h-42.08
			c0,8.93,6.56,13.4,19.68,13.4c6.4,0,12.8-0.6,19.2-1.81v12.68c-5.59,1.21-12.4,1.81-20.4,1.81c-22.98,0-34.47-10.81-34.47-32.42
			C1875.61,1224.57,1885.53,1214.25,1905.37,1214.25z M1891.61,1240.45h27.04v-0.48c0-8.77-4.43-13.16-13.28-13.16
			C1896.92,1226.81,1892.34,1231.35,1891.61,1240.45z" />
      <path class="st1" d="M1945.34,1203.99h11.83l2.41,10.26h15.94v12.68h-14.19v29.16c0,5.92,2.56,8.87,7.67,8.87h6.52v12.68h-14.25
			c-10.62,0-15.94-5.69-15.94-17.08V1203.99z" />
      <path class="st1" d="M1978.84,1214.25h16.96l16,45.64l15.64-45.64h16.66l-26.32,65.26c-4.67,11.51-12.13,19.7-22.4,24.57
			l-7.73-10.93c7.08-3.1,12.23-8.15,15.45-15.15L1978.84,1214.25z" />
      <path class="st1" d="M2075.79,1245.94c0-21.25,10.46-31.87,31.39-31.87c20.93,0,31.39,10.62,31.39,31.87
			c0,21.21-10.46,31.81-31.39,31.81C2086.33,1277.76,2075.87,1267.15,2075.79,1245.94z M2107.18,1265.56
			c10.26,0,15.39-6.62,15.39-19.86c0-12.92-5.13-19.38-15.39-19.38c-10.26,0-15.39,6.46-15.39,19.38
			C2091.79,1258.94,2096.92,1265.56,2107.18,1265.56z" />
      <path class="st1" d="M2150.65,1277.63v-63.39c0-17.39,9.5-26.08,28.49-26.08c5.19,0,9.9,0.81,14.13,2.41v12.68
			c-3.98-1.61-8.31-2.41-12.98-2.41c-9.1,0-13.64,4.47-13.64,13.4h19.02v12.68h-19.02v50.71H2150.65z" />
    </g>
    <g>
      <path class="st0"
        d="M936.88,1304.78v27.67H850v43.68h82.76v28.76h-83.12v45.5h88.94v27.91H818.09v-173.52H936.88z" />
      <path class="st0" d="M965.28,1478.3v-127.41h24.87l4,18.69c12.21-12.46,26.13-18.69,41.74-18.69c30.17,0,45.26,15.69,45.26,47.08
			v80.33H1049v-80.33c0-14.08-7-21.11-20.99-21.11c-10.44,0-20.63,4.17-30.58,12.5v88.94H965.28z" />
      <path class="st0" d="M1224.34,1470.66c-19.5,5.1-38.55,7.64-57.15,7.64c-41.18,0-61.76-22.08-61.76-66.25
			c0-40.77,20.14-61.16,60.43-61.16c8.57,0,17.35,2.02,26.33,6.07v-52.18h32.16V1470.66z M1192.19,1384.14
			c-6.63-4.37-14.97-6.55-25-6.55c-19.98,0-29.97,11.21-29.97,33.61c0,26.62,10.39,39.92,31.18,39.92c8.41,0,16.34-1.17,23.78-3.52
			V1384.14z" />
      <path class="st0"
        d="M1248.61,1414.59c0-42.71,21.03-64.07,63.1-64.07s63.1,21.36,63.1,64.07c0,42.63-21.03,63.95-63.1,63.95
			C1269.8,1478.54,1248.77,1457.23,1248.61,1414.59z M1311.71,1454.03c20.63,0,30.94-13.31,30.94-39.92
			c0-25.97-10.31-38.95-30.94-38.95c-20.63,0-30.94,12.98-30.94,38.95C1280.77,1440.72,1291.08,1454.03,1311.71,1454.03z" />
      <path class="st0" d="M1511.92,1470.66c-19.5,5.1-38.55,7.64-57.15,7.64c-41.18,0-61.76-22.08-61.76-66.25
			c0-40.77,20.14-61.16,60.43-61.16c8.57,0,17.35,2.02,26.33,6.07v-52.18h32.16V1470.66z M1479.77,1384.14
			c-6.63-4.37-14.97-6.55-25-6.55c-19.98,0-29.97,11.21-29.97,33.61c0,26.62,10.39,39.92,31.18,39.92c8.41,0,16.34-1.17,23.78-3.52
			V1384.14z" />
      <path class="st0"
        d="M1536.19,1414.59c0-42.71,21.03-64.07,63.1-64.07s63.1,21.36,63.1,64.07c0,42.63-21.03,63.95-63.1,63.95
			C1557.39,1478.54,1536.35,1457.23,1536.19,1414.59z M1599.29,1454.03c20.63,0,30.94-13.31,30.94-39.92
			c0-25.97-10.31-38.95-30.94-38.95c-20.63,0-30.94,12.98-30.94,38.95C1568.35,1440.72,1578.66,1454.03,1599.29,1454.03z" />
      <path class="st0" d="M1686.66,1478.3v-127.41h24.87l4,18.69c12.21-12.46,26.13-18.69,41.74-18.69c30.17,0,45.26,15.69,45.26,47.08
			v80.33h-32.16v-80.33c0-14.08-7-21.11-20.99-21.11c-10.44,0-20.63,4.17-30.58,12.5v88.94H1686.66z" />
      <path class="st0" d="M1831.06,1330.26h23.78l4.85,20.63h32.03v25.48h-28.52v58.61c0,11.89,5.14,17.84,15.41,17.84h13.1v25.48
			h-28.64c-21.36,0-32.03-11.45-32.03-34.34V1330.26z" />
      <path class="st0"
        d="M1945.73,1304.78v25.48h-32.16v-25.48H1945.73z M1945.73,1350.89v127.41h-32.16v-127.41H1945.73z" />
      <path class="st0" d="M2070.1,1474.66c-10.52,2.43-21.44,3.64-32.76,3.64c-45.3,0-67.95-22.04-67.95-66.13
			c0-40.85,22.65-61.28,67.95-61.28c11.32,0,22.25,1.21,32.76,3.64v25.48c-10.52-2.43-20.63-3.64-30.34-3.64
			c-25.48,0-38.22,11.93-38.22,35.8c0,27.1,12.74,40.65,38.22,40.65c9.71,0,19.82-1.21,30.34-3.64V1474.66z" />
      <path class="st0" d="M2091.34,1472.23v-26.7c14.16,5.66,30.5,8.49,49.02,8.49c13.83,0,20.75-4.45,20.75-13.35
			c0-8.49-4.65-12.74-13.95-12.74h-23.06c-25.89,0-38.83-12.74-38.83-38.22c0-26.7,18.89-40.04,56.67-40.04
			c16.02,0,31.1,2.43,45.26,7.28v26.7c-14.16-5.66-29.53-8.49-46.11-8.49c-17.39,0-26.09,4.45-26.09,13.35
			c0,8.49,5.06,12.74,15.17,12.74h20.63c28.31,0,42.47,12.74,42.47,38.22c0,26.7-18.04,40.04-54.12,40.04
			C2121.43,1479.51,2105.49,1477.09,2091.34,1472.23z" />
    </g>
  </g>
</svg>